<?xml version="1.0" standalone="no"?>
<!DOCTYPE svg PUBLIC "-//W3C//DTD SVG 20010904//EN"
 "http://www.w3.org/TR/2001/REC-SVG-20010904/DTD/svg10.dtd">
<svg version="1.0" xmlns="http://www.w3.org/2000/svg"
 width="192.000000pt" height="192.000000pt" viewBox="0 0 192.000000 192.000000"
 preserveAspectRatio="xMidYMid meet">

<g transform="translate(0.000000,192.000000) scale(0.100000,-0.100000)"
fill="#000000" stroke="none">
<path d="M360 1645 c-8 -2 -50 -9 -93 -16 -87 -13 -107 -26 -107 -70 l0 -29
-74 0 c-58 0 -75 -3 -80 -16 -3 -9 -6 -287 -6 -619 0 -521 2 -604 15 -615 12
-10 31 -6 102 23 170 67 253 81 478 82 157 0 218 -4 282 -18 77 -17 86 -17
160 -2 43 10 127 20 187 24 217 13 402 -14 579 -85 70 -28 91 -33 103 -24 12
11 14 103 14 615 0 332 -3 610 -6 619 -5 13 -22 16 -80 16 l-74 0 0 28 c0 16
-8 36 -17 44 -52 45 -356 58 -495 20 -90 -25 -164 -60 -235 -113 l-53 -40 -52
40 c-119 89 -243 130 -418 136 -63 2 -122 2 -130 0z m315 -103 c80 -25 131
-52 193 -102 l52 -40 0 -466 c0 -256 -3 -464 -7 -462 -163 83 -255 103 -486
103 l-187 0 0 487 0 487 38 6 c20 4 44 8 52 10 8 2 76 2 150 0 98 -2 151 -8
195 -23z m983 12 l22 -6 0 -487 0 -486 -187 0 c-231 0 -323 -20 -485 -103 -5
-2 -8 206 -8 462 l0 466 52 41 c81 64 137 88 283 123 28 7 295 -1 323 -10z
m-1498 -562 c0 -363 3 -472 13 -486 11 -16 23 -16 149 -5 143 13 271 5 366
-23 40 -12 32 -13 -105 -13 -179 -1 -339 -30 -500 -92 -11 -4 -13 92 -13 541
l0 546 45 0 45 0 0 -468z m1690 -78 c0 -449 -2 -545 -13 -541 -161 62 -321 91
-500 92 -137 0 -145 1 -105 13 95 28 223 36 365 23 102 -9 139 -9 149 0 12 9
14 92 14 485 l0 474 45 0 45 0 0 -546z"/>
</g>
</svg>
